<svg width="16" height="20" viewBox="0 0 16 20" fill="none" xmlns="http://www.w3.org/2000/svg">
<path fill-rule="evenodd" clip-rule="evenodd" d="M2 9.78898V18.5991C2 18.8587 1.89464 19.1077 1.70711 19.2912C1.51957 19.4748 1.26522 19.578 1 19.578C0.734784 19.578 0.48043 19.4748 0.292893 19.2912C0.105357 19.1077 0 18.8587 0 18.5991V1.9578C0 0.881008 0.9 0 2 0H8C9.1 0 9.999 0.881008 9.999 1.9578H14C14.5304 1.9578 15.0391 2.16406 15.4142 2.53122C15.7893 2.89838 16 3.39635 16 3.91559V9.78898C16 10.3082 15.7893 10.8062 15.4142 11.1734C15.0391 11.5405 14.5304 11.7468 14 11.7468H9C8.47009 11.746 7.96215 11.5394 7.58773 11.1723C7.2133 10.8052 7.003 10.3077 7.003 9.78898H2ZM2 1.9578V7.83118H9V9.78898H14.002V3.91559H8V1.9578H2Z" fill="#4F4F4F"/>
</svg>
