<svg width="20" height="20" viewBox="0 0 20 20" fill="none" xmlns="http://www.w3.org/2000/svg">
<path d="M9 17.938C7.57595 17.7606 6.22635 17.2016 5.094 16.32L3.636 17.778L2.222 16.364L3.68 14.906C2.79843 13.7737 2.23938 12.424 2.062 11H0V9H2.062C2.23938 7.57595 2.79843 6.22635 3.68 5.094L2.222 3.636L3.636 2.222L5.094 3.68C6.22635 2.79843 7.57595 2.23938 9 2.062V0H11V2.062C12.424 2.23938 13.7737 2.79843 14.906 3.68L16.364 2.222L17.778 3.636L16.32 5.094C17.2016 6.22635 17.7606 7.57595 17.938 9H20V11H17.938C17.7606 12.424 17.2016 13.7737 16.32 14.906L17.778 16.364L16.364 17.778L14.906 16.32C13.7737 17.2016 12.424 17.7606 11 17.938V20H9V17.938ZM10 15C11.3261 15 12.5979 14.4732 13.5355 13.5355C14.4732 12.5979 15 11.3261 15 10C15 8.67392 14.4732 7.40215 13.5355 6.46447C12.5979 5.52678 11.3261 5 10 5C8.67392 5 7.40215 5.52678 6.46447 6.46447C5.52678 7.40215 5 8.67392 5 10C5 11.3261 5.52678 12.5979 6.46447 13.5355C7.40215 14.4732 8.67392 15 10 15Z" fill="#4F4F4F"/>
</svg>
