<svg width="18" height="18" viewBox="0 0 18 18" fill="none" xmlns="http://www.w3.org/2000/svg">
<path fill-rule="evenodd" clip-rule="evenodd" d="M7 0.978898H17C17.2652 0.978898 17.5196 1.08203 17.7071 1.26561C17.8946 1.44919 18 1.69818 18 1.9578C18 2.21742 17.8946 2.4664 17.7071 2.64998C17.5196 2.83356 17.2652 2.93669 17 2.93669H7C6.73478 2.93669 6.48043 2.83356 6.29289 2.64998C6.10536 2.4664 6 2.21742 6 1.9578C6 1.69818 6.10536 1.44919 6.29289 1.26561C6.48043 1.08203 6.73478 0.978898 7 0.978898ZM7 7.83118H17C17.2652 7.83118 17.5196 7.93432 17.7071 8.1179C17.8946 8.30148 18 8.55046 18 8.81008C18 9.0697 17.8946 9.31869 17.7071 9.50227C17.5196 9.68585 17.2652 9.78898 17 9.78898H7C6.73478 9.78898 6.48043 9.68585 6.29289 9.50227C6.10536 9.31869 6 9.0697 6 8.81008C6 8.55046 6.10536 8.30148 6.29289 8.1179C6.48043 7.93432 6.73478 7.83118 7 7.83118ZM7 14.6835H17C17.2652 14.6835 17.5196 14.7866 17.7071 14.9702C17.8946 15.1538 18 15.4027 18 15.6624C18 15.922 17.8946 16.171 17.7071 16.3546C17.5196 16.5381 17.2652 16.6413 17 16.6413H7C6.73478 16.6413 6.48043 16.5381 6.29289 16.3546C6.10536 16.171 6 15.922 6 15.6624C6 15.4027 6.10536 15.1538 6.29289 14.9702C6.48043 14.7866 6.73478 14.6835 7 14.6835ZM2 3.91559C1.46957 3.91559 0.960859 3.70933 0.585786 3.34217C0.210714 2.97501 0 2.47704 0 1.9578C0 1.43856 0.210714 0.940583 0.585786 0.573425C0.960859 0.206267 1.46957 0 2 0C2.53043 0 3.03914 0.206267 3.41421 0.573425C3.78929 0.940583 4 1.43856 4 1.9578C4 2.47704 3.78929 2.97501 3.41421 3.34217C3.03914 3.70933 2.53043 3.91559 2 3.91559ZM2 10.7679C1.46957 10.7679 0.960859 10.5616 0.585786 10.1945C0.210714 9.8273 0 9.32932 0 8.81008C0 8.29084 0.210714 7.79287 0.585786 7.42571C0.960859 7.05855 1.46957 6.85229 2 6.85229C2.53043 6.85229 3.03914 7.05855 3.41421 7.42571C3.78929 7.79287 4 8.29084 4 8.81008C4 9.32932 3.78929 9.8273 3.41421 10.1945C3.03914 10.5616 2.53043 10.7679 2 10.7679ZM2 17.6202C1.46957 17.6202 0.960859 17.4139 0.585786 17.0467C0.210714 16.6796 0 16.1816 0 15.6624C0 15.1431 0.210714 14.6452 0.585786 14.278C0.960859 13.9108 1.46957 13.7046 2 13.7046C2.53043 13.7046 3.03914 13.9108 3.41421 14.278C3.78929 14.6452 4 15.1431 4 15.6624C4 16.1816 3.78929 16.6796 3.41421 17.0467C3.03914 17.4139 2.53043 17.6202 2 17.6202Z" fill="#4F4F4F"/>
</svg>
