<svg width="20" height="16" viewBox="0 0 20 16" fill="none" xmlns="http://www.w3.org/2000/svg">
<path fill-rule="evenodd" clip-rule="evenodd" d="M2.368 10.632L1 12V9.2C0.350012 8.25935 0.00126681 7.14337 0 6C0 2.686 2.91 0 6.5 0C9.754 0 12.45 2.207 12.925 5.088C13.2803 5.02925 13.6399 4.99982 14 5C17.314 5 20 7.462 20 10.5C20 11.625 19.632 12.67 19 13.541V16L17.775 14.775C16.6808 15.5781 15.3572 16.0076 14 16C11.175 16 8.806 14.21 8.169 11.8C7.636 11.93 7.077 12 6.5 12C5.0101 12.0083 3.5586 11.5277 2.368 10.632ZM6.5 10C9.02 10 11 8.172 11 6C11 3.828 9.02 2 6.5 2C3.98 2 2 3.828 2 6C2 8.172 3.98 10 6.5 10ZM10.046 11.03C10.336 12.687 11.972 14 14 14C16.24 14 18 12.4 18 10.5C18 8.6 16.24 7 14 7C13.611 7 13.237 7.048 12.883 7.138C12.545 8.764 11.496 10.156 10.046 11.029V11.03Z" fill="#4F4F4F"/>
</svg>
