<svg width="16" height="20" viewBox="0 0 16 20" fill="none" xmlns="http://www.w3.org/2000/svg">
<path fill-rule="evenodd" clip-rule="evenodd" d="M1 17.6202H15C15.2652 17.6202 15.5196 17.7233 15.7071 17.9069C15.8946 18.0905 16 18.3394 16 18.5991C16 18.8587 15.8946 19.1077 15.7071 19.2912C15.5196 19.4748 15.2652 19.578 15 19.578H1C0.734784 19.578 0.48043 19.4748 0.292893 19.2912C0.105357 19.1077 0 18.8587 0 18.5991C0 18.3394 0.105357 18.0905 0.292893 17.9069C0.48043 17.7233 0.734784 17.6202 1 17.6202ZM0 12.7257L10 2.93669L13 5.87339L3 15.6624H0V12.7257ZM11 1.9578L13 0L16 2.93669L13.999 4.89547L11 1.9578Z" fill="#4F4F4F"/>
</svg>
