<svg width="20" height="20" viewBox="0 0 20 20" fill="none" xmlns="http://www.w3.org/2000/svg">
<path d="M10 16C8.4087 16 6.88258 15.3679 5.75736 14.2426C4.63214 13.1174 4 11.5913 4 10C4 8.4087 4.63214 6.88258 5.75736 5.75736C6.88258 4.63214 8.4087 4 10 4C11.5913 4 13.1174 4.63214 14.2426 5.75736C15.3679 6.88258 16 8.4087 16 10C16 11.5913 15.3679 13.1174 14.2426 14.2426C13.1174 15.3679 11.5913 16 10 16ZM10 14C11.0609 14 12.0783 13.5786 12.8284 12.8284C13.5786 12.0783 14 11.0609 14 10C14 8.93913 13.5786 7.92172 12.8284 7.17157C12.0783 6.42143 11.0609 6 10 6C8.93913 6 7.92172 6.42143 7.17157 7.17157C6.42143 7.92172 6 8.93913 6 10C6 11.0609 6.42143 12.0783 7.17157 12.8284C7.92172 13.5786 8.93913 14 10 14ZM9 0H11V3H9V0ZM0 9H3V11H0V9ZM17 9H20V11H17V9ZM9 17H11V20H9V17ZM16.621 2L18.036 3.414L15.914 5.536L14.5 4.12L16.621 2ZM14.5 15.414L15.914 14L18.036 16.121L16.621 17.536L14.5 15.414ZM4.121 14L5.536 15.414L3.414 17.536L2 16.12L4.121 14ZM2 3.414L3.414 2L5.536 4.121L4.12 5.536L2 3.414Z" fill="#4F4F4F"/>
</svg>
