<svg width="20" height="16" viewBox="0 0 20 16" fill="none" xmlns="http://www.w3.org/2000/svg">
<path d="M2 2V14H18V2H2ZM2 0H18C18.5304 0 19.0391 0.210714 19.4142 0.585786C19.7893 0.960859 20 1.46957 20 2V14C20 14.5304 19.7893 15.0391 19.4142 15.4142C19.0391 15.7893 18.5304 16 18 16H2C1.46957 16 0.960859 15.7893 0.585786 15.4142C0.210714 15.0391 0 14.5304 0 14V2C0 1.46957 0.210714 0.960859 0.585786 0.585786C0.960859 0.210714 1.46957 0 2 0ZM5.5 7C5.89782 7 6.27936 6.84196 6.56066 6.56066C6.84196 6.27936 7 5.89782 7 5.5C7 5.10218 6.84196 4.72064 6.56066 4.43934C6.27936 4.15804 5.89782 4 5.5 4C5.10218 4 4.72064 4.15804 4.43934 4.43934C4.15804 4.72064 4 5.10218 4 5.5C4 5.89782 4.15804 6.27936 4.43934 6.56066C4.72064 6.84196 5.10218 7 5.5 7ZM5 10L7 8L9 10L13 6L16 9V12H5V10Z" fill="#4F4F4F"/>
</svg>
