<svg width="20" height="8" viewBox="0 0 20 8" fill="none" xmlns="http://www.w3.org/2000/svg">
<path fill-rule="evenodd" clip-rule="evenodd" d="M9.874 3H10.126C10.57 1.275 12.136 0 14 0H16C17.0609 0 18.0783 0.421427 18.8284 1.17157C19.5786 1.92172 20 2.93913 20 4C20 5.06087 19.5786 6.07828 18.8284 6.82843C18.0783 7.57857 17.0609 8 16 8H14C13.1131 7.99988 12.2514 7.70518 11.5502 7.16217C10.849 6.61916 10.3481 5.85862 10.126 5H9.874C9.65195 5.85862 9.15098 6.61916 8.44978 7.16217C7.74858 7.70518 6.88687 7.99988 6 8H4C2.93913 8 1.92172 7.57857 1.17157 6.82843C0.421427 6.07828 0 5.06087 0 4C0 2.93913 0.421427 1.92172 1.17157 1.17157C1.92172 0.421427 2.93913 0 4 0H6C6.88687 0.000117948 7.74858 0.294824 8.44978 0.83783C9.15098 1.38084 9.65195 2.14138 9.874 3ZM7.75 3.031C7.57694 2.71854 7.32337 2.45812 7.01562 2.27682C6.70787 2.09551 6.35718 1.99993 6 2H4C3.46957 2 2.96086 2.21071 2.58579 2.58579C2.21071 2.96086 2 3.46957 2 4C2 4.53043 2.21071 5.03914 2.58579 5.41421C2.96086 5.78929 3.46957 6 4 6H6C6.35718 6.00007 6.70787 5.90449 7.01562 5.72318C7.32337 5.54188 7.57694 5.28146 7.75 4.969C7.53467 4.9141 7.34377 4.78904 7.20742 4.61357C7.07108 4.4381 6.99706 4.22222 6.99706 4C6.99706 3.77778 7.07108 3.5619 7.20742 3.38643C7.34377 3.21096 7.53467 3.0859 7.75 3.031ZM12 4.97C12.1732 5.28228 12.4268 5.54249 12.7346 5.72362C13.0423 5.90474 13.3929 6.00017 13.75 6H15.75C16.2804 6 16.7891 5.78929 17.1642 5.41421C17.5393 5.03914 17.75 4.53043 17.75 4C17.75 3.46957 17.5393 2.96086 17.1642 2.58579C16.7891 2.21071 16.2804 2 15.75 2H13.75C13.3928 1.99993 13.0421 2.09551 12.7344 2.27682C12.4266 2.45812 12.1731 2.71854 12 3.031C12.2153 3.0859 12.4062 3.21096 12.5426 3.38643C12.6789 3.5619 12.7529 3.77778 12.7529 4C12.7529 4.22222 12.6789 4.4381 12.5426 4.61357C12.4062 4.78904 12.2153 4.9141 12 4.969V4.97Z" fill="#4F4F4F"/>
</svg>
