<svg width="16" height="16" viewBox="0 0 16 16" fill="none" xmlns="http://www.w3.org/2000/svg">
<path fill-rule="evenodd" clip-rule="evenodd" d="M10.8392 10.9198C11.3367 10.4031 12.0029 10.0818 12.717 10.0141C13.4311 9.94633 14.1458 10.1367 14.7316 10.5507C15.3174 10.9646 15.7354 11.5748 15.91 12.2705C16.0846 12.9662 16.0041 13.7015 15.6832 14.343C15.3622 14.9845 14.8221 15.4897 14.1606 15.7672C13.4991 16.0446 12.7601 16.0759 12.0776 15.8553C11.3951 15.6347 10.8142 15.1768 10.4402 14.5647C10.0662 13.9526 9.92397 13.2268 10.0392 12.5188L5.16617 10.0758C4.7519 10.5082 4.21771 10.8067 3.63236 10.9329C3.04701 11.0591 2.43728 11.0073 1.88163 10.7841C1.32599 10.5608 0.849867 10.1764 0.514533 9.68034C0.179198 9.18424 0 8.59913 0 8.00033C0 7.40152 0.179198 6.81642 0.514533 6.32031C0.849867 5.82421 1.32599 5.43981 1.88163 5.21658C2.43728 4.99335 3.04701 4.94151 3.63236 5.06773C4.21771 5.19395 4.7519 5.49246 5.16617 5.92483L10.0392 3.48183C9.92397 2.77385 10.0662 2.04802 10.4402 1.43592C10.8142 0.82383 11.3951 0.365986 12.0776 0.145392C12.7601 -0.0752024 13.4991 -0.0439452 14.1606 0.233497C14.8221 0.510939 15.3622 1.0162 15.6832 1.65769C16.0041 2.29918 16.0846 3.03443 15.91 3.73015C15.7354 4.42588 15.3174 5.03603 14.7316 5.44999C14.1458 5.86395 13.4311 6.05432 12.717 5.9866C12.0029 5.91887 11.3367 5.59753 10.8392 5.08083L5.96217 7.51883C6.01354 7.83744 6.01354 8.16222 5.96217 8.48083L10.8392 10.9188V10.9198ZM13.0002 3.99983C13.2654 3.99983 13.5197 3.89447 13.7073 3.70694C13.8948 3.5194 14.0002 3.26505 14.0002 2.99983C14.0002 2.73461 13.8948 2.48026 13.7073 2.29272C13.5197 2.10519 13.2654 1.99983 13.0002 1.99983C12.735 1.99983 12.4806 2.10519 12.2931 2.29272C12.1055 2.48026 12.0002 2.73461 12.0002 2.99983C12.0002 3.26505 12.1055 3.5194 12.2931 3.70694C12.4806 3.89447 12.735 3.99983 13.0002 3.99983ZM13.0002 13.9998C13.2654 13.9998 13.5197 13.8945 13.7073 13.7069C13.8948 13.5194 14.0002 13.265 14.0002 12.9998C14.0002 12.7346 13.8948 12.4803 13.7073 12.2927C13.5197 12.1052 13.2654 11.9998 13.0002 11.9998C12.735 11.9998 12.4806 12.1052 12.2931 12.2927C12.1055 12.4803 12.0002 12.7346 12.0002 12.9998C12.0002 13.265 12.1055 13.5194 12.2931 13.7069C12.4806 13.8945 12.735 13.9998 13.0002 13.9998ZM3.00017 8.99983C3.26539 8.99983 3.51974 8.89447 3.70728 8.70693C3.89481 8.5194 4.00017 8.26505 4.00017 7.99983C4.00017 7.73461 3.89481 7.48026 3.70728 7.29272C3.51974 7.10519 3.26539 6.99983 3.00017 6.99983C2.73496 6.99983 2.4806 7.10519 2.29307 7.29272C2.10553 7.48026 2.00017 7.73461 2.00017 7.99983C2.00017 8.26505 2.10553 8.5194 2.29307 8.70693C2.4806 8.89447 2.73496 8.99983 3.00017 8.99983Z" fill="#4F4F4F"/>
</svg>
