<svg width="18" height="18" viewBox="0 0 18 18" fill="none" xmlns="http://www.w3.org/2000/svg">
<path d="M1.98144 11.887L6.11344 16.019L16.0194 6.113V1.981H11.8874L1.98044 11.887H1.98144ZM10.4864 0.58C10.8574 0.209 11.3614 0 11.8864 0H16.0194C17.1134 0 18.0004 0.887 18.0004 1.981V6.113C18.0004 6.639 17.7914 7.143 17.4204 7.514L7.51444 17.42C7.33048 17.604 7.11207 17.75 6.87168 17.8496C6.6313 17.9492 6.37364 18.0004 6.11344 18.0004C5.85324 18.0004 5.59559 17.9492 5.3552 17.8496C5.11482 17.75 4.8964 17.604 4.71244 17.42L0.580443 13.288C0.396424 13.104 0.250448 12.8856 0.150855 12.6452C0.0512608 12.4049 0 12.1472 0 11.887C0 11.6268 0.0512608 11.3691 0.150855 11.1288C0.250448 10.8884 0.396424 10.67 0.580443 10.486L10.4864 0.58ZM13.0004 6C13.2657 6 13.52 5.89464 13.7076 5.70711C13.8951 5.51957 14.0004 5.26522 14.0004 5C14.0004 4.73478 13.8951 4.48043 13.7076 4.29289C13.52 4.10536 13.2657 4 13.0004 4C12.7352 4 12.4809 4.10536 12.2933 4.29289C12.1058 4.48043 12.0004 4.73478 12.0004 5C12.0004 5.26522 12.1058 5.51957 12.2933 5.70711C12.4809 5.89464 12.7352 6 13.0004 6Z" fill="#4F4F4F"/>
</svg>
